<svg style="height: 512px; width: 512px;" xmlns="http://www.w3.org/2000/svg" viewBox="0 0 512 512"><defs><linearGradient x1="0" x2="1" y1="0" y2="1" id="lorc-back-forth-gradient-1"><stop offset="0%" stop-color="#f8e71c" stop-opacity="1"></stop><stop offset="100%" stop-color="#4a90e2" stop-opacity="1"></stop></linearGradient></defs><path d="M0 0h512v512H0z" fill="url(#pattern)" fill-opacity="1"></path><g class="" style="" transform="translate(0,0)"><path d="M241.844 28.625l-21.188 5.063L33.25 78.53l-9.594 2.282 2.813 9.47 54.718 184.03 6.156 20.782 10.875-18.75 36.624-63.125 39.344 22.655 9.375-16.188-47.47-27.312L128 187.72l-4.656 8.06-30.406 52.47-45.75-153.844 156.625-37.47-30.344 52.345-4.69 8.126 8.126 4.656L332.75 211.75l-17.594 30.344 16.22 9.312 22.25-38.375 4.687-8.124-8.125-4.656-155.844-89.688 36.594-63.093 10.906-18.845zm-28.25 176.47l-57.438 99.31 155.22 89.5 8.093 4.658-4.69 8.093-44.06 76.25 218.81-52.5-63.874-215.47-44.094 76.25-4.656 8.064-8.094-4.656-155.218-89.5z" fill="url(#lorc-back-forth-gradient-1)"></path></g><g class="" style="" transform="translate(366,352)"><g transform="translate(16, 16) scale(0.5, 0.5) rotate(0, 128, 128)"><circle cx="128" cy="128" r="128" fill="#000" fill-opacity="1"></circle><circle stroke="#fff" stroke-opacity="1" fill="#000" fill-opacity="1" stroke-width="18" cx="128" cy="128" r="101"></circle><path fill="#fff" fill-opacity="1" d="M119 48v23.72C94.81 75.6 75.6 94.81 71.72 119H48v18h23.72c3.87 24.2 23.09 43.4 47.28 47.3V208h18v-23.7c24.2-3.9 43.4-23.1 47.3-47.3H208v-18h-23.7c-3.9-24.19-23.1-43.41-47.3-47.28V48h-18zm0 42.05V102h18V90.05c14.3 3.36 25.6 14.65 29 28.95h-12v18h12c-3.4 14.3-14.7 25.6-29 29v-12h-18v12c-14.3-3.4-25.59-14.7-28.95-29H102v-18H90.05c3.36-14.3 14.65-25.59 28.95-28.95z"></path></g></g></svg>