<svg style="height: 512px; width: 512px;" xmlns="http://www.w3.org/2000/svg" viewBox="0 0 512 512"><defs><linearGradient x1="0" x2="0" y1="0" y2="1" id="lorc-cheerful-gradient-1"><stop offset="0%" stop-color="#f8e71c" stop-opacity="1"></stop><stop offset="100%" stop-color="#bd10e0" stop-opacity="1"></stop></linearGradient></defs><path d="M0 0h512v512H0z" fill="url(#pattern)" fill-opacity="1"></path><g class="" style="" transform="translate(0,0)"><path d="M147.886 34.688c-10.106-.02-20.147 1.212-29.89 3.646-51.954 12.984-95.682 59.773-97.782 126.98-1.12 35.802 9.933 65.568 27.54 91.12 17.61 25.552 41.55 47.156 66.847 68.44 50.597 42.573 106.392 83.872 132.4 148.294l8.903 22.05 8.49-22.212c24.648-64.483 78.63-107.776 128.604-151.27 49.974-43.493 96.634-88.202 98.783-155.833 2.275-71.536-42.364-116.7-95.523-127.137-49-9.622-105.34 9.122-140.23 57.744-27.546-42.14-68.33-61.74-108.14-61.822zm108.43 90.36l92.414 115.144c-17.518-4.413-34.638-7.367-51.426-9.104l-40.988-51.068-41.475 51.678c-17.227 1.92-34.183 4.84-50.938 8.496zm10.964 104.22c3.744.203 7.524.536 11.338.998 23.128 58.72 94.71 72.16 144.393 37.942-12.702 13.278-27.086 26.205-42.282 39.43-13.117 11.417-26.774 23.008-40.272 35.16-38.64-3.292-79.145-49.547-73.176-113.53zm-22.613.21c5.097 64.43-37.687 112.014-77.23 115.173-13.762-11.76-27.61-22.97-40.805-34.073-14.815-12.465-28.802-24.828-41.06-37.637 49.857 39.712 124.645 21.8 147.51-42.287 3.834-.497 7.693-.895 11.585-1.174z" fill="url(#lorc-cheerful-gradient-1)"></path></g><g class="" style="" transform="translate(366,352)"><g transform="translate(16, 16) scale(0.5, 0.5) rotate(0, 128, 128)"><circle cx="128" cy="128" r="128" fill="#000" fill-opacity="1"></circle><circle stroke="#fff" stroke-opacity="1" fill="#000" fill-opacity="1" stroke-width="18" cx="128" cy="128" r="101"></circle><path fill="#fff" fill-opacity="1" d="M119 48v23.72C94.81 75.6 75.6 94.81 71.72 119H48v18h23.72c3.87 24.2 23.09 43.4 47.28 47.3V208h18v-23.7c24.2-3.9 43.4-23.1 47.3-47.3H208v-18h-23.7c-3.9-24.19-23.1-43.41-47.3-47.28V48h-18zm0 42.05V102h18V90.05c14.3 3.36 25.6 14.65 29 28.95h-12v18h12c-3.4 14.3-14.7 25.6-29 29v-12h-18v12c-14.3-3.4-25.59-14.7-28.95-29H102v-18H90.05c3.36-14.3 14.65-25.59 28.95-28.95z"></path></g></g></svg>