<svg style="height: 512px; width: 512px;" xmlns="http://www.w3.org/2000/svg" viewBox="0 0 512 512"><defs><linearGradient id="delapouite-dice-target-gradient-1" x1="0" x2="0" y1="0" y2="1"><stop offset="0%" stop-color="#d0021b" stop-opacity="1"></stop><stop offset="100%" stop-color="#4a90e2" stop-opacity="1"></stop></linearGradient></defs><path d="M0 0h512v512H0z" fill="url(#pattern)" fill-opacity="1"></path><g class="" style="" transform="translate(0,0)"><path d="M247 16v23.2C134.4 43.81 43.81 134.4 39.2 247H16v18h23.2c4.61 112.6 95.2 203.2 207.8 207.8V496h18v-23.2c112.6-4.6 203.2-95.2 207.8-207.8H496v-18h-23.2C468.2 134.4 377.6 43.81 265 39.2V16h-18zm0 41.21V80h18V57.21C367.8 61.78 450.2 144.2 454.8 247H432v18h22.8c-4.6 102.8-87 185.2-189.8 189.8V432h-18v22.8c-102.8-4.6-185.22-87-189.79-189.8H80v-18H57.21C61.78 144.2 144.2 61.78 247 57.21zm8.9 38.12c-5 0-9.5 1.1-12.9 2.9L126.8 165.3c-7.3 4.1-7.3 10.9 0 15.2L243 247.4c7.2 4.3 18.5 4.3 25.7 0l115.9-66.9c7.4-4.3 7.4-11.1 0-15.2L268.7 98.23c-3.4-1.8-8.3-2.9-12.8-2.9zm-89 62.57c6 .1 11.7 1.6 16 4.1 8 5.7 7.3 14.1-1.5 19.4-9 5.2-23.1 5.6-32.7.8-14.9-9.3-3.4-24.7 18.2-24.3zm178.6.1h2c6 .2 11.7 1.8 15.9 4.2 8.3 5.7 7.7 14.3-1.2 19.6-9.1 5.3-23.4 5.6-33 .7-15-9-4.5-24.1 16.3-24.5zm-89 0c21.4.2 31.8 15.5 16.8 24.5-9.3 6.2-25.2 6.4-35.1.6-9.8-5.8-9.6-15.3.6-20.9 4.7-2.7 11.1-4.3 17.7-4.2zm-141 41c-4.5 0-7.5 3-7.5 9.2v119.7c0 8.4 5.8 18.3 13.2 22.6l111.4 64.4c7.2 4.1 12.9.7 12.9-7.6V287.6c0-8.3-5.7-18.4-12.9-22.5l-111.5-64.5c-2.2-1.1-4.1-1.5-5.6-1.6zm281.3 0c-1.6.1-3.7.5-5.8 1.6l-111.5 64.5c-7.2 4.1-12.9 14.2-12.9 22.5v119.7c0 8.3 5.7 11.7 12.9 7.6L391 350.5c7-4.3 13-14.2 13-22.6V208.2c0-6.2-3-9.2-7.2-9.2zm-185 65.5c11.2.4 24.7 17.3 24.5 31.5.4 11-7.4 15.5-17.2 9.9-9.7-5.7-17.5-19.4-16.9-29.8 0-6.8 3.2-11.2 8.5-11.6h1.1zm130.9 21.8h1.1c5.2.4 8.5 4.8 8.5 11.5-.1 10.5-7.7 23.3-17.1 28.8-9.5 5.5-17.1 1.5-17.2-8.9-.1-14.2 13.5-31.3 24.7-31.4zm-216.9 22.5c11.4-.5 25.5 16.8 25.5 31.3.4 11.1-7.4 15.6-17.2 10.1-9.7-5.7-17.5-19.3-17-29.8 0-6.9 3.3-11.3 8.7-11.6z" fill="url(#delapouite-dice-target-gradient-1)"></path></g><g class="" style="" transform="translate(366,352)"><g transform="translate(16, 16) scale(0.5, 0.5) rotate(0, 128, 128)"><circle cx="128" cy="128" r="128" fill="#000" fill-opacity="1"></circle><circle stroke="#fff" stroke-opacity="1" fill="#000" fill-opacity="1" stroke-width="18" cx="128" cy="128" r="101"></circle><path fill="#fff" fill-opacity="1" d="M142.4 151.1h-33.8v-4.5q0-7.7 3.1-13.6 3.1-6 13-15.2l6-5.5q5.3-4.8 7.8-9.2 2.5-4.26 2.5-8.58 0-6.56-4.5-10.21-4.5-3.75-12.6-3.75-7.6 0-16.4 3.18-8.78 3.1-18.34 9.28V63.59q11.34-3.94 20.74-5.82 9.4-1.87 18.1-1.87 22.8 0 34.8 9.37 12 9.29 12 27.19 0 9.14-3.6 16.54-3.7 7.2-12.5 15.5l-6 5.4q-6.4 5.8-8.3 9.3-2 3.5-2 7.7zM108.6 165h33.8v33.4h-33.8z"></path></g></g></svg>