<svg xmlns="http://www.w3.org/2000/svg" viewBox="0 0 512 512" style="height: 512px; width: 512px;"><defs><linearGradient x1="0" x2="0" y1="0" y2="1" id="lorc-magic-gate-gradient-1"><stop offset="0%" stop-color="#20008f" stop-opacity="1"></stop><stop offset="100%" stop-color="#6d0002" stop-opacity="1"></stop></linearGradient></defs><g class="" transform="translate(0,0)" style=""><path d="M43.72 13.844 18.155 64.97c27.97 13.658 58.89 24.446 91.53 32.436l-89.53 393.438H123.5l41.25-373.438 1.03-9.437 9.44 1.186c52.986 6.706 108.616 6.364 161.56-.594l9.44-1.218 1.06 9.47 41.25 374.03h103.314L402.156 96.75C433.81 88.828 463.8 78.25 491 64.97l-25.53-51.126c-112.422 54.9-309.332 54.9-421.75 0zm286 114.344a658.877 658.877 0 0 1-42.783 3.562c-21.804 10.4-32.54 26.267-35.312 54.406 27.25-30.575 55.034-36.127 81.188-29.906l-3.094-28.063zm-147.44.53-10.03 90.97c8.553-37.432 27.04-73.21 54.875-87.625-15.038-.6-30.02-1.7-44.844-3.344zm64.97 13.313c-34.87 17.008-72.704 109.172-38.156 162.907-23.665 3.18-37.152-6.345-43.406-26l-4.313 39.125c9.257 32.188 30.822 44 56.844 44-12.7 21.47-47.05 23.77-62.94 11.188l-1.655 15.188c10.71 28.704 37.626 43.795 74.344 42.093-18.365 23.685-30.833 24.123-63.064 14 39.07 48.74 103.567 18.582 119.125-31.53 13.896 22.31-2.982 63.977-44.374 67.75 82.914 13.18 105.38-62.936 57.125-124.406 21.172 2.414 47.277 11.1 62.314 38.312l-10.813-98.22c-25.328-31.6-75.52-19.695-66.56-46.373 4.55-13.55 34.584-16.545 42.03 11.093 12.44-41.053-37.255-49.697-52.563-29.78 16.442-29.484 50.19-27.943 69.125-7.157l-5.03-45.5c-33.345-13.155-72.762 8.446-89.188 52.655-12.81-21.176-21.274-66.546 1.156-89.344zm92.03 255.22c9.187 42.963-7.44 81.635-44.81 93l75.217.25L363 429.875c-7.54-14.486-14.178-24.364-23.72-32.625zm-192.467 52.78-4.5 40.845h67.843c-27.745-8.302-48.728-18.543-63.344-40.844z" fill="url(#lorc-magic-gate-gradient-1)"></path></g><g class="" transform="translate(177,231)" style=""><g transform="translate(16, 16) scale(0.5, 0.5) rotate(0, 128, 128)"><circle cx="128" cy="128" r="128" fill="#000000" fill-opacity="0.02"></circle><circle stroke="#542900" stroke-opacity="1" fill="#000000" fill-opacity="0.02" stroke-width="18" cx="128" cy="128" r="101"></circle><path fill="#542900" fill-opacity="1" d="M145.2 58.45c-8.3 12.4-10.3 22.35 2.5 21.1 10.4-1.02 7.2-10.11-2.5-21.1zm-38.3.55c-6.7 13.14-7.73 23.5 3.7 21.69 9.3-1.45 5.6-10.72-3.7-21.69zm69.7 17.45c-12.8 15.11-11.2 26.75-.4 27.95 11.6.3 11.8-12.14.4-27.95zm-99.87 4.9C68.85 95.5 68.37 106 79.88 105.2c14.04-1 8.37-11.54-3.15-23.85zm68.27 4.9c-17.5.72-15.7 37.15.8 36.55 16.3-.6 16.3-37.25-.8-36.55zm-33.6.59h-.7c-17.48 1.5-13.91 37.96 2.6 36.46 16.2-1.4 14.4-36.81-1.9-36.49zM85.34 112.9c-.52 0-.94.1-1.47.1-17.33 2.2-11.98 38.4 4.41 36.4 15.72-2 12.82-36.3-2.94-36.5zm87.36.5c-17.5-.4-18.3 36.2-1.6 36.5 16.3.3 18.8-36.2 1.6-36.5zm-45.4 21.1c-17.9.4-4.1 18.9-35.65 29.6-24.49 8.3-9.67 33.2 11.35 33.4 11.6.1 15.6-9 25-9 10.7.1 11.5 8.2 27.1 8.2 20.1.1 31.6-25 8.8-33.6-29.1-10.9-16.9-28.4-35.7-28.6z"></path></g></g></svg>