<svg style="height: 512px; width: 512px;" xmlns="http://www.w3.org/2000/svg" viewBox="0 0 512 512"><defs><radialGradient id="lorc-oppression-gradient-1"><stop offset="0%" stop-color="#ffe0af" stop-opacity="1"></stop><stop offset="100%" stop-color="#7b4874" stop-opacity="1"></stop></radialGradient></defs><path d="M0 0h512v512H0z" fill="url(#pattern)" fill-opacity="1"></path><g class="" style="" transform="translate(0,0)"><path d="M19.188 16.406V123.28l153.593 81.75-70.655-188.624H19.187zm109.812 0L248.125 161.22l5.25-144.814H129zm165.25 0l40.906 133.156 60.72-133.156H294.25zm140.188 0l-14.594 155.938 74.75-69.5V16.406h-60.156zM19.188 167.062v97.532l99.874 9.937L19.19 167.064zm409.406 40.313c-17.884-.094-38.853 9.07-55.938 26.156-5.305 5.307-9.826 10.998-13.562 16.845-93.737-56.476-329.936 76.333-179 189.78H60.78l-26.468 47.72H291.5L203 384.625c24.27-26.708 67.458-43.704 97-45.063 13.793 45.098 36.265 113.497 71.75 148.313h60.844c-43.07-46.547-76.538-109.09-81.938-179.844 1.616 3.237 3.72 6.19 6.313 8.783 18.662 18.663 55.944 11.648 83.28-15.688s34.35-64.618 15.688-83.28c-7-7-16.614-10.413-27.344-10.47zM19.188 323v59.563l77.687-23.938L19.187 323z" fill="url(#lorc-oppression-gradient-1)"></path></g><g class="" style="" transform="translate(366,352)"><g transform="translate(16, 16) scale(0.5, 0.5) rotate(0, 128, 128)"><circle cx="128" cy="128" r="128" fill="#000" fill-opacity="1"></circle><circle stroke="#fff" stroke-opacity="1" fill="#000" fill-opacity="1" stroke-width="18" cx="128" cy="128" r="101"></circle><path fill="#fff" fill-opacity="1" d="M119 48v23.72C94.81 75.6 75.6 94.81 71.72 119H48v18h23.72c3.87 24.2 23.09 43.4 47.28 47.3V208h18v-23.7c24.2-3.9 43.4-23.1 47.3-47.3H208v-18h-23.7c-3.9-24.19-23.1-43.41-47.3-47.28V48h-18zm0 42.05V102h18V90.05c14.3 3.36 25.6 14.65 29 28.95h-12v18h12c-3.4 14.3-14.7 25.6-29 29v-12h-18v12c-14.3-3.4-25.59-14.7-28.95-29H102v-18H90.05c3.36-14.3 14.65-25.59 28.95-28.95z"></path></g></g></svg>